<?xml version="1.0" encoding="utf-8"?>
<!-- Generator: Adobe Illustrator 23.0.6, SVG Export Plug-In . SVG Version: 6.00 Build 0)  -->
<svg version="1.1" id="Layer_1" xmlns="http://www.w3.org/2000/svg" xmlns:xlink="http://www.w3.org/1999/xlink" x="0px" y="0px"
	 viewBox="0 0 144 144" style="enable-background:new 0 0 144 144;" xml:space="preserve">
<style type="text/css">
	.st0{fill:#444444;}
</style>
<g>
	<g>
		<path class="st0" d="M83.86,52.46V46.5c-0.04-7.58-6.21-13.7-13.79-13.66c-7.53,0.04-13.63,6.13-13.66,13.66v5.96
			c0.04,7.58,6.21,13.7,13.79,13.66C77.73,66.09,83.83,59.99,83.86,52.46z M60.02,52.46V46.5c0.03-5.58,4.58-10.09,10.17-10.06
			c5.54,0.03,10.03,4.51,10.06,10.06v5.96c-0.03,5.58-4.58,10.09-10.17,10.06C64.54,62.49,60.05,58,60.02,52.46z"/>
	</g>
	<g>
		<path class="st0" d="M48.01,103.44h44.26c1,0,1.81-0.81,1.81-1.81l0,0v-4.15h30.3c1,0,1.81-0.81,1.81-1.81V83.93
			c0-7.15-5.56-13.07-12.69-13.52c-0.96-0.07-1.46,0.54-1.86,1.03c-2.9,3.55-8.13,4.07-11.68,1.17c-0.53-0.43-1.01-0.93-1.42-1.49
			c-0.35-0.47-0.91-0.75-1.5-0.73c-2.35,0.05-4.64,0.72-6.65,1.94c-2.68-3.12-6.51-5.01-10.61-5.26c-0.93-0.04-1.41,0.53-1.86,1.09
			c-3.41,4.16-9.54,4.78-13.7,1.37c-0.62-0.51-1.18-1.1-1.66-1.75c-0.35-0.47-0.91-0.75-1.5-0.73c-3.97,0.09-7.74,1.74-10.5,4.58
			c-0.23,0.23-0.45,0.48-0.66,0.72c-1.87-1.14-3.98-1.8-6.17-1.94c-0.96-0.07-1.46,0.54-1.86,1.03c-2.9,3.55-8.13,4.07-11.68,1.17
			c-0.53-0.43-1.01-0.93-1.42-1.49c-0.35-0.47-0.91-0.75-1.5-0.73c-7.35,0.19-13.21,6.2-13.21,13.54v11.74c0,1,0.81,1.81,1.81,1.81
			H46.2v4.15C46.2,102.63,47.01,103.44,48.01,103.44z M96.26,74.06c4.35,4.94,11.88,5.42,16.82,1.06c0.36-0.32,0.7-0.66,1.02-1.02
			c4.86,0.73,8.46,4.91,8.46,9.82v9.93H94.07v-11.6c0-2.41-0.57-4.78-1.67-6.93C93.58,74.64,94.9,74.21,96.26,74.06L96.26,74.06z
			 M60.26,70.71c4.82,5.58,13.26,6.2,18.84,1.38c0.48-0.41,0.92-0.86,1.34-1.33c5.74,0.79,10.02,5.7,10.03,11.5v17.56H49.82V82.26
			C49.85,76.32,54.35,71.35,60.26,70.71z M17.66,93.86v-9.93c0.03-5.04,3.81-9.27,8.82-9.87c4.35,4.94,11.88,5.41,16.82,1.06
			c0.36-0.32,0.7-0.66,1.02-1.02c1.25,0.19,2.44,0.61,3.53,1.25c-1.09,2.14-1.66,4.51-1.65,6.91v11.6H17.66z"/>
	</g>
	<g>
		<path class="st0" d="M117.24,57.85v-5.22c0-6.76-5.48-12.24-12.24-12.24c-6.76,0-12.24,5.48-12.24,12.24v5.22
			c0,6.76,5.48,12.24,12.24,12.24C111.76,70.09,117.24,64.61,117.24,57.85z M96.38,57.85v-5.22c0-4.76,3.86-8.63,8.62-8.63
			c4.76,0,8.63,3.86,8.63,8.62c0,0,0,0,0,0v5.22c0,4.76-3.86,8.63-8.62,8.63S96.38,62.61,96.38,57.85
			C96.38,57.85,96.38,57.85,96.38,57.85z"/>
	</g>
	<g>
		<path class="st0" d="M47.47,57.85v-5.22c0-6.76-5.48-12.24-12.24-12.24s-12.24,5.48-12.24,12.24v5.22
			c0,6.76,5.48,12.24,12.24,12.24S47.47,64.61,47.47,57.85z M26.6,57.85v-5.22c0-4.76,3.86-8.63,8.62-8.63
			c4.76,0,8.63,3.86,8.63,8.62c0,0,0,0,0,0v5.22c0,4.76-3.86,8.63-8.62,8.63S26.6,62.61,26.6,57.85
			C26.6,57.85,26.6,57.85,26.6,57.85z"/>
	</g>
	<g>
		<path class="st0" d="M72,144c-39.7,0-72-32.3-72-72S32.3,0,72,0s72,32.3,72,72S111.7,144,72,144z M72,4.37
			C34.71,4.37,4.37,34.71,4.37,72c0,37.29,30.34,67.63,67.63,67.63c37.29,0,67.63-30.34,67.63-67.63
			C139.63,34.71,109.29,4.37,72,4.37z"/>
	</g>
</g>
</svg>
