<?xml version="1.0" encoding="utf-8"?>
<!-- Generator: Adobe Illustrator 23.0.6, SVG Export Plug-In . SVG Version: 6.00 Build 0)  -->
<svg version="1.1" id="Layer_1" xmlns="http://www.w3.org/2000/svg" xmlns:xlink="http://www.w3.org/1999/xlink" x="0px" y="0px"
	 viewBox="0 0 26.08 21.75" style="enable-background:new 0 0 26.08 21.75;" xml:space="preserve">
<style type="text/css">
	.st0{fill:#FFFFFF;}
</style>
<g>
	<path class="st0" d="M21.82,12.37c-1.69-0.4-3.84-1.43-4.62-2.71c-0.44-0.71-0.48-1.52-0.13-2.21c0.02-0.04,0.05-0.09,0.08-0.14
		c-0.02-0.15,0.02-0.35,0.12-0.61c0.01-0.02,0.01-0.02,0.01-0.03H8.62c0,0.01,0,0.01,0.01,0.02c0,0,0,0,0,0
		C8.82,7,8.99,7.27,9.08,7.44c0.36,0.7,0.31,1.5-0.12,2.22c-0.78,1.28-2.94,2.32-4.63,2.71l-0.47,7.82
		c-0.05,0.86,0.51,1.56,1.25,1.56h15.92c0.74,0,1.3-0.7,1.25-1.56L21.82,12.37z M10.48,17.75h-1.5c-0.28,0-0.5-0.22-0.5-0.5
		s0.22-0.5,0.5-0.5h1.5c0.27,0,0.5,0.22,0.5,0.5S10.75,17.75,10.48,17.75z M10.48,15.85h-1.5c-0.28,0-0.5-0.22-0.5-0.5
		c0-0.28,0.22-0.5,0.5-0.5h1.5c0.27,0,0.5,0.22,0.5,0.5C10.97,15.63,10.75,15.85,10.48,15.85z M10.48,13.95h-1.5
		c-0.28,0-0.5-0.22-0.5-0.5c0-0.27,0.22-0.5,0.5-0.5h1.5c0.27,0,0.5,0.22,0.5,0.5C10.97,13.73,10.75,13.95,10.48,13.95z
		 M13.83,17.75h-1.49c-0.28,0-0.5-0.22-0.5-0.5s0.22-0.5,0.5-0.5h1.5c0.27,0,0.5,0.22,0.5,0.5C14.32,17.53,14.1,17.75,13.83,17.75z
		 M13.83,15.85h-1.49c-0.28,0-0.5-0.22-0.5-0.5c0-0.28,0.22-0.5,0.5-0.5h1.5c0.27,0,0.5,0.22,0.5,0.5
		C14.32,15.63,14.1,15.85,13.83,15.85z M13.83,13.95h-1.49c-0.28,0-0.5-0.22-0.5-0.5c0-0.27,0.22-0.5,0.5-0.5h1.5
		c0.27,0,0.5,0.22,0.5,0.5C14.32,13.73,14.1,13.95,13.83,13.95z M17.18,17.75h-1.5c-0.27,0-0.5-0.22-0.5-0.5s0.22-0.5,0.5-0.5h1.5
		c0.28,0,0.5,0.22,0.5,0.5S17.45,17.75,17.18,17.75z M17.18,15.85h-1.5c-0.27,0-0.5-0.22-0.5-0.5c0-0.28,0.22-0.5,0.5-0.5h1.5
		c0.28,0,0.5,0.22,0.5,0.5C17.68,15.63,17.45,15.85,17.18,15.85z M17.18,13.95h-1.5c-0.27,0-0.5-0.22-0.5-0.5
		c0-0.27,0.22-0.5,0.5-0.5h1.5c0.28,0,0.5,0.22,0.5,0.5C17.68,13.73,17.45,13.95,17.18,13.95z M25.48,7.85
		c-0.03,0.16-0.03,0.32-0.09,0.47c-0.36,0.87-1.04,1.59-1.53,2.4c-0.64,1.03-6.1-1.18-5.39-2.55c0.26-0.51,1.3-1.9,1.37-2.47
		c0.07-0.5-0.59-0.89-1.21-0.94c-1.62-0.13-3.69-0.01-5.4,0v0c-0.05,0-0.1,0-0.14,0c-0.05,0-0.1,0-0.14,0v0
		c-1.72-0.01-3.79-0.13-5.4,0C6.92,4.81,6.25,5.2,6.32,5.7C6.4,6.26,7.43,7.66,7.7,8.17c0.7,1.37-4.75,3.58-5.39,2.55
		c-0.5-0.8-1.17-1.53-1.53-2.4C0.71,8.17,0.71,8.01,0.68,7.85c-0.8-3.58,2.28-7.22,6.93-7.6C9.38,0.11,11.16,0.03,12.94,0v-0.01
		c0.05,0,0.09,0,0.14,0c0.05,0,0.09,0,0.14,0V0c1.78,0.03,3.56,0.11,5.33,0.26C23.19,0.63,26.28,4.28,25.48,7.85z"/>
</g>
</svg>
