<?xml version="1.0" encoding="utf-8"?>
<!-- Generator: Adobe Illustrator 23.0.6, SVG Export Plug-In . SVG Version: 6.00 Build 0)  -->
<svg version="1.1" id="Layer_1" xmlns="http://www.w3.org/2000/svg" xmlns:xlink="http://www.w3.org/1999/xlink" x="0px" y="0px"
	 viewBox="0 0 144 144" style="enable-background:new 0 0 144 144;" xml:space="preserve">
<style type="text/css">
	.st0{fill:#444444;}
	.st1{fill:none;}
</style>
<g>
	<g>
		<path class="st0" d="M70.18,45.67v-7.78c-0.05-9.9-8.11-17.89-18.01-17.84c-9.83,0.05-17.79,8.01-17.84,17.84v7.78
			c0.05,9.9,8.11,17.89,18.01,17.84C62.18,63.46,70.14,55.5,70.18,45.67z M39.06,45.67v-7.78c0.04-7.29,5.98-13.17,13.27-13.13
			c7.23,0.04,13.09,5.89,13.13,13.13v7.78c-0.04,7.29-5.98,13.17-13.27,13.13C44.95,58.76,39.1,52.9,39.06,45.67z"/>
	</g>
	<g>
		<path class="st1" d="M65.7,69.56c-0.54,0.62-1.12,1.2-1.74,1.74c-7.29,6.3-18.3,5.49-24.6-1.8c-7.72,0.83-13.58,7.31-13.63,15.07
			v22.93h53.06V84.57C78.79,77.01,73.2,70.6,65.7,69.56z"/>
		<path class="st1" d="M109.66,73.93c-0.42,0.47-0.86,0.91-1.33,1.33c-6.45,5.68-16.28,5.06-21.96-1.39
			c-1.78,0.2-3.49,0.76-5.03,1.66c1.44,2.8,2.18,5.9,2.18,9.04v15.15h37.19V86.76C120.7,80.34,116.01,74.89,109.66,73.93z"/>
		<g>
			<path class="st1" d="M109.66,73.93c-0.42,0.47-0.86,0.91-1.33,1.33c-6.45,5.68-16.28,5.06-21.96-1.39
				c-1.78,0.2-3.49,0.76-5.03,1.66c1.44,2.8,2.18,5.9,2.18,9.04v15.15h37.19V86.76C120.7,80.34,116.01,74.89,109.66,73.93z"/>
			<path class="st1" d="M65.7,69.56c-0.54,0.62-1.12,1.2-1.74,1.74c-7.29,6.3-18.3,5.49-24.6-1.8c-7.72,0.83-13.58,7.31-13.63,15.07
				v22.93h53.06V84.57C78.79,77.01,73.2,70.6,65.7,69.56z"/>
			<path class="st0" d="M21.01,84.57v15.15v4.72v5.42c0,1.3,1.06,2.36,2.36,2.36h57.78c1.3,0,2.36-1.06,2.36-2.36v-5.42h39.56
				c1.3,0,2.36-1.06,2.36-2.36V86.76c-0.01-9.33-7.26-17.06-16.57-17.65c-1.26-0.09-1.91,0.7-2.43,1.35
				c-3.79,4.63-10.62,5.31-15.25,1.52c-0.69-0.57-1.31-1.22-1.85-1.94c-0.46-0.62-1.19-0.98-1.96-0.96
				c-3.07,0.07-6.06,0.94-8.69,2.53c-3.5-4.07-8.5-6.55-13.85-6.87c-1.22-0.05-1.84,0.69-2.43,1.42
				c-4.45,5.43-12.46,6.24-17.89,1.79c-0.81-0.67-1.54-1.43-2.17-2.28c-0.46-0.62-1.19-0.98-1.96-0.96
				c-4.19,0.1-8.27,1.44-11.49,4.04C21.78,74.5,21.01,84.57,21.01,84.57z M78.79,107.5H25.73V84.57
				c0.05-7.76,5.91-14.25,13.63-15.07c6.3,7.29,17.31,8.09,24.6,1.8c0.62-0.54,1.2-1.12,1.74-1.74c7.5,1.04,13.08,7.44,13.09,15.01
				V107.5z M120.71,99.72H83.51V84.57c0-3.14-0.75-6.24-2.18-9.04c1.54-0.9,3.26-1.47,5.03-1.66c5.68,6.45,15.51,7.07,21.96,1.39
				c0.47-0.42,0.92-0.86,1.33-1.33c6.35,0.96,11.04,6.41,11.05,12.82V99.72z"/>
		</g>
	</g>
	<g>
		<path class="st0" d="M113.76,52.7v-6.81c0-8.83-7.16-15.98-15.98-15.98S81.8,37.06,81.8,45.89v6.81c0,8.83,7.16,15.98,15.98,15.98
			S113.76,61.53,113.76,52.7z M86.52,52.7v-6.81c0-6.22,5.04-11.26,11.26-11.26c6.22,0,11.26,5.04,11.26,11.26c0,0,0,0,0,0v6.81
			c0,6.22-5.04,11.26-11.26,11.26C91.56,63.97,86.52,58.93,86.52,52.7C86.52,52.71,86.52,52.7,86.52,52.7z"/>
	</g>
	<g>
		<path class="st0" d="M72,144c-39.7,0-72-32.3-72-72S32.3,0,72,0s72,32.3,72,72S111.7,144,72,144z M72,4.37
			C34.71,4.37,4.37,34.71,4.37,72c0,37.29,30.34,67.63,67.63,67.63c37.29,0,67.63-30.34,67.63-67.63
			C139.63,34.71,109.29,4.37,72,4.37z"/>
	</g>
</g>
</svg>
